<?xml version="1.0" encoding="UTF-8"?>
<svg id="Layer_1" data-name="Layer 1" xmlns="http://www.w3.org/2000/svg" viewBox="0 0 400 100">
  <defs>
    <style>
      .cls-1 {
        fill: #fff;
      }
    </style>
  </defs>
  <g>
    <path class="cls-1" d="M143.06,82.39V15.79h17.35l20.8,49.09h.33l20.72-49.09h17.27v66.6h-12.5v-49.67h-.33l-20.47,49.67h-10.61l-20.47-49.75h-.33v49.75h-11.76Z"/>
    <path class="cls-1" d="M308.04,82.39V15.79h12.5v66.6h-12.5Z"/>
    <path class="cls-1" d="M228.38,82.39l28.29-66.6h13.07l28.12,66.6h-12.83l-3.04-7.25c-2.59-6.17-8.63-10.18-15.32-10.18h-7.48c-6.67,0-12.69,3.98-15.29,10.12l-3.1,7.31h-12.42ZM252.14,54.44h22.04l-10.77-25.82h-.41l-10.85,25.82Z"/>
    <path class="cls-1" d="M330.52,82.39l28.29-66.6h13.07l28.12,66.6h-12.83l-3.04-7.25c-2.59-6.17-8.63-10.18-15.32-10.18h-7.48c-6.67,0-12.69,3.98-15.29,10.12l-3.1,7.31h-12.42ZM354.29,54.44h22.04l-10.77-25.82h-.41l-10.85,25.82Z"/>
  </g>
  <path class="cls-1" d="M119.13,86.2L67.9,4.23c-1.66-2.65-4.52-4.23-7.64-4.23s-5.98,1.58-7.64,4.23L1.4,86.19c-2.08,3.32-1.82,7.42.66,10.46,2.47,3.04,6.44,4.13,10.12,2.76l38.4-15.74c6.21-2.54,13.05-2.55,19.26,0l38.44,15.72.11.04c1.03.38,2.1.58,3.17.58,2.69,0,5.21-1.22,6.93-3.34,2.47-3.04,2.73-7.15.65-10.47ZM58.45,46.38l-4.43-7.14-29.08,46.79-15.42,6.33c-.84.29-1.38-.17-1.63-.47-.25-.31-.59-.95-.11-1.72l13.96-22.32c.81-1.29,2.19-2.02,3.63-2.02.54,0,1.1.1,1.63.32l5.32,2.17,4.03-6.48-8.64-3.54,20.95-33.51,23.74,38.25.1.17,7.07-2.89-14.87-23.97,7.18-11.56,20.91,33.46-30.57,12.53c-1.29.53-2.72.53-4.01,0l-11.88-4.86,12.14-19.54ZM53.1,17.68l5.91-9.45c.38-.61.95-.7,1.26-.7s.87.09,1.25.7l5.9,9.45-5.88,9.46c-.28.45-.76.71-1.28.71h0c-.53,0-1.01-.27-1.28-.71l-5.87-9.46ZM50.25,75.66l-13.43,5.51,5.45-8.77,7.97,3.26ZM112.63,91.91h0c-.19.24-.73.77-1.6.46l-15.51-6.34-10.28-16.57,8.25-3.38c1.94-.79,4.15-.08,5.26,1.7l14,22.41c.48.77.14,1.41-.11,1.72ZM78.17,72.36l5.47,8.82-13.51-5.52,8.04-3.3Z"/>
</svg>