<svg width="50" height="50" viewBox="0 0 50 50" fill="none" xmlns="http://www.w3.org/2000/svg">
<rect width="50" height="50" rx="8" fill="#00272B"/>
<g clip-path="url(#clip0_584_5423)">
<path d="M43.5273 34.8443L27.8282 10.3057C27.3222 9.51595 26.4518 9.04517 25.4991 9.04517C24.5463 9.04517 23.6768 9.51685 23.1699 10.3066L7.47174 34.8416C6.83811 35.8292 6.91766 37.0509 7.67246 37.9554C8.42541 38.8608 9.63531 39.1843 10.7555 38.7786L22.5224 34.0681C24.4288 33.3045 26.5286 33.3036 28.4359 34.0662L40.2149 38.7723L40.2491 38.7831C40.5645 38.8979 40.8901 38.9557 41.2167 38.9557C42.0353 38.9557 42.8058 38.5934 43.3303 37.9626C44.0842 37.0563 44.1619 35.8328 43.5282 34.8461L43.5273 34.8443ZM22.4715 31.6825L18.2804 33.3623L19.9824 30.6894L22.4706 31.6834L22.4715 31.6825ZM24.9256 22.9166L23.5852 20.8066L14.683 34.8L9.95166 36.6967C9.68619 36.787 9.51506 36.6434 9.43644 36.5512C9.35781 36.4554 9.24866 36.2593 9.40129 36.019L13.6803 29.3349C13.9301 28.9455 14.3593 28.725 14.8051 28.725C14.9735 28.725 15.1446 28.7566 15.3093 28.8226L16.9271 29.4687L18.1453 27.5521L15.498 26.4922L21.9387 16.4259L29.2268 27.8973L29.2527 27.937L31.3904 27.0813L26.8366 19.9111L29.0557 16.4232L35.4854 26.475L26.0985 30.2322C25.6989 30.3922 25.2576 30.3922 24.858 30.2322L21.2015 28.772L24.9256 22.9156V22.9166ZM23.2865 14.3223L25.1013 11.4858C25.2216 11.2988 25.4029 11.2708 25.5 11.2708C25.5971 11.2708 25.7756 11.2988 25.8959 11.4858L27.7107 14.3223L25.9042 17.1623C25.8163 17.3006 25.6646 17.3828 25.4981 17.3828C25.3316 17.3828 25.1799 17.3006 25.0921 17.1623L23.2874 14.3223H23.2865ZM41.5626 36.5575C41.5025 36.6316 41.3314 36.7952 41.0539 36.7012L36.2947 34.8009L33.1322 29.8229L35.6759 28.8045C36.2772 28.5641 36.9626 28.7792 37.3067 29.3178L41.5978 36.0262C41.7504 36.2656 41.6412 36.4626 41.5626 36.5584V36.5575ZM30.9945 30.6777L32.7011 33.3659L28.4859 31.6825L30.9954 30.6777H30.9945Z" fill="white"/>
</g>
<defs>
<clipPath id="clip0_584_5423">
<rect width="37" height="30" fill="white" transform="translate(7 9)"/>
</clipPath>
</defs>
</svg>
